<mxfile host="app.diagrams.net" agent="Mozilla/5.0 (X11; Linux x86_64) AppleWebKit/537.36 (KHTML, like Gecko) Chrome/128.0.0.0 Safari/537.36" version="24.8.6">
  <diagram name="Soldier" id="bNyluB4SRBgi5bmSacoo">
    <mxGraphModel dx="1608" dy="874" grid="1" gridSize="10" guides="1" tooltips="1" connect="1" arrows="1" fold="1" page="1" pageScale="1" pageWidth="850" pageHeight="1100" math="0" shadow="0">
      <root>
        <mxCell id="0" />
        <mxCell id="1" parent="0" />
        <mxCell id="EaPyJRF3Z0Aftap1q74G-5" value="First few soldiers&lt;div&gt;created&lt;/div&gt;" style="edgeStyle=none;rounded=0;orthogonalLoop=1;jettySize=auto;html=1;" edge="1" parent="1" source="EaPyJRF3Z0Aftap1q74G-1" target="EaPyJRF3Z0Aftap1q74G-4">
          <mxGeometry relative="1" as="geometry" />
        </mxCell>
        <mxCell id="EaPyJRF3Z0Aftap1q74G-7" value="" style="edgeStyle=none;rounded=0;orthogonalLoop=1;jettySize=auto;html=1;" edge="1" parent="1" source="EaPyJRF3Z0Aftap1q74G-1" target="EaPyJRF3Z0Aftap1q74G-6">
          <mxGeometry relative="1" as="geometry" />
        </mxCell>
        <mxCell id="EaPyJRF3Z0Aftap1q74G-8" value="Normal&lt;div&gt;Creation&lt;/div&gt;" style="edgeLabel;html=1;align=center;verticalAlign=middle;resizable=0;points=[];" vertex="1" connectable="0" parent="EaPyJRF3Z0Aftap1q74G-7">
          <mxGeometry x="-0.2565" y="-2" relative="1" as="geometry">
            <mxPoint x="7" y="8" as="offset" />
          </mxGeometry>
        </mxCell>
        <mxCell id="EaPyJRF3Z0Aftap1q74G-1" value="Created" style="ellipse;whiteSpace=wrap;html=1;aspect=fixed;" vertex="1" parent="1">
          <mxGeometry x="340" y="40" width="80" height="80" as="geometry" />
        </mxCell>
        <mxCell id="EaPyJRF3Z0Aftap1q74G-12" style="edgeStyle=none;rounded=0;orthogonalLoop=1;jettySize=auto;html=1;" edge="1" parent="1" source="EaPyJRF3Z0Aftap1q74G-4" target="EaPyJRF3Z0Aftap1q74G-9">
          <mxGeometry relative="1" as="geometry" />
        </mxCell>
        <mxCell id="EaPyJRF3Z0Aftap1q74G-13" value="A capturable&lt;div&gt;ruin is found&lt;/div&gt;" style="edgeLabel;html=1;align=center;verticalAlign=middle;resizable=0;points=[];" vertex="1" connectable="0" parent="EaPyJRF3Z0Aftap1q74G-12">
          <mxGeometry x="-0.3902" y="1" relative="1" as="geometry">
            <mxPoint x="3" y="8" as="offset" />
          </mxGeometry>
        </mxCell>
        <mxCell id="EaPyJRF3Z0Aftap1q74G-16" value="" style="edgeStyle=none;rounded=0;orthogonalLoop=1;jettySize=auto;html=1;" edge="1" parent="1" source="EaPyJRF3Z0Aftap1q74G-4" target="EaPyJRF3Z0Aftap1q74G-15">
          <mxGeometry relative="1" as="geometry" />
        </mxCell>
        <mxCell id="EaPyJRF3Z0Aftap1q74G-17" value="No ruin is found,&lt;div&gt;rush tower&lt;/div&gt;" style="edgeLabel;html=1;align=center;verticalAlign=middle;resizable=0;points=[];" vertex="1" connectable="0" parent="EaPyJRF3Z0Aftap1q74G-16">
          <mxGeometry x="-0.4125" y="-2" relative="1" as="geometry">
            <mxPoint x="-16" y="17" as="offset" />
          </mxGeometry>
        </mxCell>
        <mxCell id="EaPyJRF3Z0Aftap1q74G-4" value="Opening" style="ellipse;whiteSpace=wrap;html=1;" vertex="1" parent="1">
          <mxGeometry x="240" y="180" width="80" height="80" as="geometry" />
        </mxCell>
        <mxCell id="EaPyJRF3Z0Aftap1q74G-10" value="" style="edgeStyle=none;rounded=0;orthogonalLoop=1;jettySize=auto;html=1;" edge="1" parent="1" source="EaPyJRF3Z0Aftap1q74G-6" target="EaPyJRF3Z0Aftap1q74G-9">
          <mxGeometry relative="1" as="geometry" />
        </mxCell>
        <mxCell id="EaPyJRF3Z0Aftap1q74G-11" value="See a ruin&lt;div&gt;to capture&lt;/div&gt;" style="edgeLabel;html=1;align=center;verticalAlign=middle;resizable=0;points=[];" vertex="1" connectable="0" parent="EaPyJRF3Z0Aftap1q74G-10">
          <mxGeometry x="0.1215" y="-2" relative="1" as="geometry">
            <mxPoint x="-1" as="offset" />
          </mxGeometry>
        </mxCell>
        <mxCell id="EaPyJRF3Z0Aftap1q74G-19" value="" style="edgeStyle=none;rounded=0;orthogonalLoop=1;jettySize=auto;html=1;" edge="1" parent="1" source="EaPyJRF3Z0Aftap1q74G-6" target="EaPyJRF3Z0Aftap1q74G-18">
          <mxGeometry relative="1" as="geometry" />
        </mxCell>
        <mxCell id="EaPyJRF3Z0Aftap1q74G-20" value="See a candidate&lt;div&gt;spot for an SRP&lt;/div&gt;" style="edgeLabel;html=1;align=center;verticalAlign=middle;resizable=0;points=[];" vertex="1" connectable="0" parent="EaPyJRF3Z0Aftap1q74G-19">
          <mxGeometry x="-0.0641" y="1" relative="1" as="geometry">
            <mxPoint x="10" y="3" as="offset" />
          </mxGeometry>
        </mxCell>
        <mxCell id="EaPyJRF3Z0Aftap1q74G-6" value="Explore" style="ellipse;whiteSpace=wrap;html=1;aspect=fixed;" vertex="1" parent="1">
          <mxGeometry x="420" y="180" width="80" height="80" as="geometry" />
        </mxCell>
        <mxCell id="EaPyJRF3Z0Aftap1q74G-33" style="edgeStyle=none;rounded=0;orthogonalLoop=1;jettySize=auto;html=1;" edge="1" parent="1" source="EaPyJRF3Z0Aftap1q74G-9" target="EaPyJRF3Z0Aftap1q74G-15">
          <mxGeometry relative="1" as="geometry" />
        </mxCell>
        <mxCell id="EaPyJRF3Z0Aftap1q74G-34" value="See a Tower&lt;div&gt;to Fight&lt;/div&gt;" style="edgeLabel;html=1;align=center;verticalAlign=middle;resizable=0;points=[];" vertex="1" connectable="0" parent="EaPyJRF3Z0Aftap1q74G-33">
          <mxGeometry x="-0.4545" relative="1" as="geometry">
            <mxPoint x="-20" as="offset" />
          </mxGeometry>
        </mxCell>
        <mxCell id="EaPyJRF3Z0Aftap1q74G-36" value="" style="edgeStyle=none;rounded=0;orthogonalLoop=1;jettySize=auto;html=1;" edge="1" parent="1" source="EaPyJRF3Z0Aftap1q74G-9" target="EaPyJRF3Z0Aftap1q74G-35">
          <mxGeometry relative="1" as="geometry" />
        </mxCell>
        <mxCell id="EaPyJRF3Z0Aftap1q74G-37" value="Ruin is&lt;div&gt;Contested&lt;/div&gt;" style="edgeLabel;html=1;align=center;verticalAlign=middle;resizable=0;points=[];" vertex="1" connectable="0" parent="EaPyJRF3Z0Aftap1q74G-36">
          <mxGeometry x="-0.4219" y="-3" relative="1" as="geometry">
            <mxPoint y="11" as="offset" />
          </mxGeometry>
        </mxCell>
        <mxCell id="EaPyJRF3Z0Aftap1q74G-9" value="Capture&lt;div&gt;Ruin&lt;/div&gt;" style="ellipse;whiteSpace=wrap;html=1;aspect=fixed;" vertex="1" parent="1">
          <mxGeometry x="330" y="320" width="80" height="80" as="geometry" />
        </mxCell>
        <mxCell id="EaPyJRF3Z0Aftap1q74G-15" value="Fight Tower" style="ellipse;whiteSpace=wrap;html=1;" vertex="1" parent="1">
          <mxGeometry x="140" y="320" width="80" height="80" as="geometry" />
        </mxCell>
        <mxCell id="EaPyJRF3Z0Aftap1q74G-21" style="edgeStyle=none;rounded=0;orthogonalLoop=1;jettySize=auto;html=1;" edge="1" parent="1" source="EaPyJRF3Z0Aftap1q74G-18" target="EaPyJRF3Z0Aftap1q74G-9">
          <mxGeometry relative="1" as="geometry" />
        </mxCell>
        <mxCell id="EaPyJRF3Z0Aftap1q74G-22" value="See a ruin&lt;div&gt;to capture&lt;/div&gt;" style="edgeLabel;html=1;align=center;verticalAlign=middle;resizable=0;points=[];" vertex="1" connectable="0" parent="EaPyJRF3Z0Aftap1q74G-21">
          <mxGeometry x="-0.3273" y="2" relative="1" as="geometry">
            <mxPoint x="-13" y="-2" as="offset" />
          </mxGeometry>
        </mxCell>
        <mxCell id="EaPyJRF3Z0Aftap1q74G-29" style="edgeStyle=none;rounded=0;orthogonalLoop=1;jettySize=auto;html=1;" edge="1" parent="1" source="EaPyJRF3Z0Aftap1q74G-18" target="EaPyJRF3Z0Aftap1q74G-6">
          <mxGeometry relative="1" as="geometry">
            <Array as="points">
              <mxPoint x="570" y="260" />
            </Array>
          </mxGeometry>
        </mxCell>
        <mxCell id="EaPyJRF3Z0Aftap1q74G-30" value="Finish&amp;nbsp;&lt;div&gt;capturing SRP&lt;/div&gt;" style="edgeLabel;html=1;align=center;verticalAlign=middle;resizable=0;points=[];" vertex="1" connectable="0" parent="EaPyJRF3Z0Aftap1q74G-29">
          <mxGeometry x="0.1567" y="-3" relative="1" as="geometry">
            <mxPoint x="7" y="-11" as="offset" />
          </mxGeometry>
        </mxCell>
        <mxCell id="EaPyJRF3Z0Aftap1q74G-18" value="Capture&lt;div&gt;SRP&lt;/div&gt;" style="ellipse;whiteSpace=wrap;html=1;aspect=fixed;" vertex="1" parent="1">
          <mxGeometry x="520" y="320" width="80" height="80" as="geometry" />
        </mxCell>
        <mxCell id="EaPyJRF3Z0Aftap1q74G-35" value="Get Backup" style="ellipse;whiteSpace=wrap;html=1;aspect=fixed;" vertex="1" parent="1">
          <mxGeometry x="385" y="460" width="80" height="80" as="geometry" />
        </mxCell>
        <mxCell id="EaPyJRF3Z0Aftap1q74G-38" style="edgeStyle=none;rounded=0;orthogonalLoop=1;jettySize=auto;html=1;entryX=0.919;entryY=0.713;entryDx=0;entryDy=0;entryPerimeter=0;" edge="1" parent="1" source="EaPyJRF3Z0Aftap1q74G-35" target="EaPyJRF3Z0Aftap1q74G-9">
          <mxGeometry relative="1" as="geometry">
            <Array as="points">
              <mxPoint x="440" y="430" />
            </Array>
          </mxGeometry>
        </mxCell>
        <mxCell id="EaPyJRF3Z0Aftap1q74G-39" value="Return to&lt;div&gt;contested&lt;/div&gt;&lt;div&gt;ruin&lt;/div&gt;" style="edgeLabel;html=1;align=center;verticalAlign=middle;resizable=0;points=[];" vertex="1" connectable="0" parent="EaPyJRF3Z0Aftap1q74G-38">
          <mxGeometry x="-0.0458" y="1" relative="1" as="geometry">
            <mxPoint x="29" y="11" as="offset" />
          </mxGeometry>
        </mxCell>
      </root>
    </mxGraphModel>
  </diagram>
</mxfile>
